<mxfile host="app.diagrams.net" agent="Mozilla/5.0 (Windows NT 10.0; Win64; x64) AppleWebKit/537.36 (KHTML, like Gecko) Chrome/131.0.0.0 Safari/537.36" version="25.0.3">
  <diagram name="Complete API Routing Diagram" id="XdHECtqL5oT7YwH_FqM8">
    <mxGraphModel dx="1320" dy="1828" grid="1" gridSize="10" guides="1" tooltips="1" connect="1" arrows="1" fold="1" page="1" pageScale="1" pageWidth="827" pageHeight="1169" math="0" shadow="0">
      <root>
        <mxCell id="0" />
        <mxCell id="1" parent="0" />
        <mxCell id="K9lvbok_ld0rpNyF6cux-14" value="API Gateway" style="shape=rectangle;whiteSpace=wrap;html=1;fillColor=#dae8fc;" parent="1" vertex="1">
          <mxGeometry x="310" y="60" width="200" height="60" as="geometry" />
        </mxCell>
        <mxCell id="K9lvbok_ld0rpNyF6cux-15" value="Auth Routes" style="shape=rectangle;whiteSpace=wrap;html=1;fillColor=#fff2cc;verticalAlign=top;" parent="1" vertex="1">
          <mxGeometry x="200" y="170" width="420" height="150" as="geometry" />
        </mxCell>
        <mxCell id="K9lvbok_ld0rpNyF6cux-16" value="POST /auth/register" style="ellipse;whiteSpace=wrap;html=1;" parent="1" vertex="1">
          <mxGeometry x="214" y="200" width="166" height="30" as="geometry" />
        </mxCell>
        <mxCell id="K9lvbok_ld0rpNyF6cux-17" value="POST /auth/login" style="ellipse;whiteSpace=wrap;html=1;" parent="1" vertex="1">
          <mxGeometry x="214" y="235" width="166" height="30" as="geometry" />
        </mxCell>
        <mxCell id="K9lvbok_ld0rpNyF6cux-18" value="POST /auth/logout" style="ellipse;whiteSpace=wrap;html=1;" parent="1" vertex="1">
          <mxGeometry x="214" y="270" width="166" height="30" as="geometry" />
        </mxCell>
        <mxCell id="K9lvbok_ld0rpNyF6cux-20" value="User Routes" style="shape=rectangle;whiteSpace=wrap;html=1;fillColor=#d5e8d4;verticalAlign=top;" parent="1" vertex="1">
          <mxGeometry x="120" y="370" width="580" height="350" as="geometry" />
        </mxCell>
        <mxCell id="K9lvbok_ld0rpNyF6cux-21" value="GET /users" style="ellipse;whiteSpace=wrap;html=1;" parent="1" vertex="1">
          <mxGeometry x="214" y="400" width="166" height="30" as="geometry" />
        </mxCell>
        <mxCell id="K9lvbok_ld0rpNyF6cux-22" value="GET /users/{user_id}" style="ellipse;whiteSpace=wrap;html=1;" parent="1" vertex="1">
          <mxGeometry x="214" y="435" width="166" height="30" as="geometry" />
        </mxCell>
        <mxCell id="K9lvbok_ld0rpNyF6cux-23" value="PATCH /users/{user_id}" style="ellipse;whiteSpace=wrap;html=1;" parent="1" vertex="1">
          <mxGeometry x="214" y="470" width="166" height="30" as="geometry" />
        </mxCell>
        <mxCell id="K9lvbok_ld0rpNyF6cux-24" value="DELETE /users/{user_id}" style="ellipse;whiteSpace=wrap;html=1;" parent="1" vertex="1">
          <mxGeometry x="214" y="506" width="166" height="30" as="geometry" />
        </mxCell>
        <mxCell id="K9lvbok_ld0rpNyF6cux-25" value="Profile Routes" style="shape=rectangle;whiteSpace=wrap;html=1;fillColor=#f8cecc;verticalAlign=top;" parent="1" vertex="1">
          <mxGeometry x="120" y="760" width="580" height="280" as="geometry" />
        </mxCell>
        <mxCell id="K9lvbok_ld0rpNyF6cux-68" style="edgeStyle=orthogonalEdgeStyle;rounded=0;orthogonalLoop=1;jettySize=auto;html=1;exitX=1;exitY=0.5;exitDx=0;exitDy=0;" parent="1" source="K9lvbok_ld0rpNyF6cux-26" target="K9lvbok_ld0rpNyF6cux-57" edge="1">
          <mxGeometry relative="1" as="geometry" />
        </mxCell>
        <mxCell id="K9lvbok_ld0rpNyF6cux-26" value="GET /profile" style="ellipse;whiteSpace=wrap;html=1;" parent="1" vertex="1">
          <mxGeometry x="130" y="790" width="250" height="30" as="geometry" />
        </mxCell>
        <mxCell id="K9lvbok_ld0rpNyF6cux-69" style="edgeStyle=orthogonalEdgeStyle;rounded=0;orthogonalLoop=1;jettySize=auto;html=1;entryX=0;entryY=0.5;entryDx=0;entryDy=0;" parent="1" source="K9lvbok_ld0rpNyF6cux-27" target="K9lvbok_ld0rpNyF6cux-58" edge="1">
          <mxGeometry relative="1" as="geometry" />
        </mxCell>
        <mxCell id="K9lvbok_ld0rpNyF6cux-27" value="POST /profile" style="ellipse;whiteSpace=wrap;html=1;" parent="1" vertex="1">
          <mxGeometry x="130" y="830" width="250" height="30" as="geometry" />
        </mxCell>
        <mxCell id="K9lvbok_ld0rpNyF6cux-70" style="edgeStyle=orthogonalEdgeStyle;rounded=0;orthogonalLoop=1;jettySize=auto;html=1;entryX=0;entryY=0.5;entryDx=0;entryDy=0;" parent="1" source="K9lvbok_ld0rpNyF6cux-28" target="K9lvbok_ld0rpNyF6cux-59" edge="1">
          <mxGeometry relative="1" as="geometry" />
        </mxCell>
        <mxCell id="K9lvbok_ld0rpNyF6cux-28" value="GET /profile/{profile_id}&amp;nbsp;" style="ellipse;whiteSpace=wrap;html=1;" parent="1" vertex="1">
          <mxGeometry x="130" y="870" width="250" height="30" as="geometry" />
        </mxCell>
        <mxCell id="K9lvbok_ld0rpNyF6cux-71" style="edgeStyle=orthogonalEdgeStyle;rounded=0;orthogonalLoop=1;jettySize=auto;html=1;entryX=0;entryY=0.5;entryDx=0;entryDy=0;" parent="1" source="K9lvbok_ld0rpNyF6cux-29" target="K9lvbok_ld0rpNyF6cux-60" edge="1">
          <mxGeometry relative="1" as="geometry" />
        </mxCell>
        <mxCell id="K9lvbok_ld0rpNyF6cux-29" value="PUT /profiles/{profile_id}" style="ellipse;whiteSpace=wrap;html=1;" parent="1" vertex="1">
          <mxGeometry x="130" y="910" width="250" height="30" as="geometry" />
        </mxCell>
        <mxCell id="K9lvbok_ld0rpNyF6cux-72" style="edgeStyle=orthogonalEdgeStyle;rounded=0;orthogonalLoop=1;jettySize=auto;html=1;entryX=0;entryY=0.5;entryDx=0;entryDy=0;" parent="1" source="K9lvbok_ld0rpNyF6cux-30" target="K9lvbok_ld0rpNyF6cux-61" edge="1">
          <mxGeometry relative="1" as="geometry" />
        </mxCell>
        <mxCell id="K9lvbok_ld0rpNyF6cux-30" value="DELETE /profiles/{profile_id}" style="ellipse;whiteSpace=wrap;html=1;" parent="1" vertex="1">
          <mxGeometry x="130" y="950" width="250" height="30" as="geometry" />
        </mxCell>
        <mxCell id="K9lvbok_ld0rpNyF6cux-31" value="Content Routes" style="shape=rectangle;whiteSpace=wrap;html=1;fillColor=#e1d5e7;verticalAlign=top;" parent="1" vertex="1">
          <mxGeometry x="120" y="1290" width="580" height="190" as="geometry" />
        </mxCell>
        <mxCell id="K9lvbok_ld0rpNyF6cux-77" style="edgeStyle=orthogonalEdgeStyle;rounded=0;orthogonalLoop=1;jettySize=auto;html=1;exitX=1;exitY=0.5;exitDx=0;exitDy=0;entryX=0;entryY=0.5;entryDx=0;entryDy=0;" parent="1" source="K9lvbok_ld0rpNyF6cux-32" target="K9lvbok_ld0rpNyF6cux-73" edge="1">
          <mxGeometry relative="1" as="geometry" />
        </mxCell>
        <mxCell id="K9lvbok_ld0rpNyF6cux-32" value="GET /content" style="ellipse;whiteSpace=wrap;html=1;" parent="1" vertex="1">
          <mxGeometry x="130" y="1320" width="250" height="30" as="geometry" />
        </mxCell>
        <mxCell id="K9lvbok_ld0rpNyF6cux-33" value="GET /content/{content_id}" style="ellipse;whiteSpace=wrap;html=1;" parent="1" vertex="1">
          <mxGeometry x="130" y="1360" width="250" height="30" as="geometry" />
        </mxCell>
        <mxCell id="K9lvbok_ld0rpNyF6cux-79" style="edgeStyle=orthogonalEdgeStyle;rounded=0;orthogonalLoop=1;jettySize=auto;html=1;exitX=1;exitY=0.5;exitDx=0;exitDy=0;entryX=0;entryY=0.5;entryDx=0;entryDy=0;" parent="1" source="K9lvbok_ld0rpNyF6cux-34" target="K9lvbok_ld0rpNyF6cux-75" edge="1">
          <mxGeometry relative="1" as="geometry" />
        </mxCell>
        <mxCell id="K9lvbok_ld0rpNyF6cux-34" value="GET /content/recommendations" style="ellipse;whiteSpace=wrap;html=1;" parent="1" vertex="1">
          <mxGeometry x="130" y="1400" width="250" height="30" as="geometry" />
        </mxCell>
        <mxCell id="K9lvbok_ld0rpNyF6cux-80" style="edgeStyle=orthogonalEdgeStyle;rounded=0;orthogonalLoop=1;jettySize=auto;html=1;exitX=1;exitY=0.5;exitDx=0;exitDy=0;entryX=0;entryY=0.5;entryDx=0;entryDy=0;" parent="1" source="K9lvbok_ld0rpNyF6cux-35" target="K9lvbok_ld0rpNyF6cux-76" edge="1">
          <mxGeometry relative="1" as="geometry" />
        </mxCell>
        <mxCell id="K9lvbok_ld0rpNyF6cux-35" value="GET /content/search" style="ellipse;whiteSpace=wrap;html=1;" parent="1" vertex="1">
          <mxGeometry x="130" y="1440" width="250" height="30" as="geometry" />
        </mxCell>
        <mxCell id="K9lvbok_ld0rpNyF6cux-36" value="Subscription Routes" style="shape=rectangle;whiteSpace=wrap;html=1;fillColor=#d9e8e1;verticalAlign=top;" parent="1" vertex="1">
          <mxGeometry x="120" y="1510" width="580" height="210" as="geometry" />
        </mxCell>
        <mxCell id="K9lvbok_ld0rpNyF6cux-85" style="edgeStyle=orthogonalEdgeStyle;rounded=0;orthogonalLoop=1;jettySize=auto;html=1;exitX=1;exitY=0.5;exitDx=0;exitDy=0;entryX=0;entryY=0.5;entryDx=0;entryDy=0;" parent="1" source="K9lvbok_ld0rpNyF6cux-37" target="K9lvbok_ld0rpNyF6cux-81" edge="1">
          <mxGeometry relative="1" as="geometry" />
        </mxCell>
        <mxCell id="K9lvbok_ld0rpNyF6cux-37" value="GET /subscriptions" style="ellipse;whiteSpace=wrap;html=1;" parent="1" vertex="1">
          <mxGeometry x="130" y="1550" width="250" height="30" as="geometry" />
        </mxCell>
        <mxCell id="K9lvbok_ld0rpNyF6cux-86" style="edgeStyle=orthogonalEdgeStyle;rounded=0;orthogonalLoop=1;jettySize=auto;html=1;exitX=1;exitY=0.5;exitDx=0;exitDy=0;entryX=0;entryY=0.5;entryDx=0;entryDy=0;" parent="1" source="K9lvbok_ld0rpNyF6cux-38" target="K9lvbok_ld0rpNyF6cux-82" edge="1">
          <mxGeometry relative="1" as="geometry" />
        </mxCell>
        <mxCell id="K9lvbok_ld0rpNyF6cux-38" value="POST /subscriptions" style="ellipse;whiteSpace=wrap;html=1;" parent="1" vertex="1">
          <mxGeometry x="130" y="1590" width="250" height="30" as="geometry" />
        </mxCell>
        <mxCell id="K9lvbok_ld0rpNyF6cux-87" style="edgeStyle=orthogonalEdgeStyle;rounded=0;orthogonalLoop=1;jettySize=auto;html=1;exitX=1;exitY=0.5;exitDx=0;exitDy=0;entryX=0;entryY=0.5;entryDx=0;entryDy=0;" parent="1" source="K9lvbok_ld0rpNyF6cux-39" target="K9lvbok_ld0rpNyF6cux-83" edge="1">
          <mxGeometry relative="1" as="geometry" />
        </mxCell>
        <mxCell id="K9lvbok_ld0rpNyF6cux-39" value="PUT /subscriptions/{subscription_id}" style="ellipse;whiteSpace=wrap;html=1;" parent="1" vertex="1">
          <mxGeometry x="130" y="1630" width="250" height="30" as="geometry" />
        </mxCell>
        <mxCell id="K9lvbok_ld0rpNyF6cux-88" style="edgeStyle=orthogonalEdgeStyle;rounded=0;orthogonalLoop=1;jettySize=auto;html=1;exitX=1;exitY=0.5;exitDx=0;exitDy=0;entryX=0;entryY=0.5;entryDx=0;entryDy=0;" parent="1" source="K9lvbok_ld0rpNyF6cux-40" target="K9lvbok_ld0rpNyF6cux-84" edge="1">
          <mxGeometry relative="1" as="geometry" />
        </mxCell>
        <mxCell id="K9lvbok_ld0rpNyF6cux-40" value="DELETE /subscriptions/{subscription_id}" style="ellipse;whiteSpace=wrap;html=1;" parent="1" vertex="1">
          <mxGeometry x="130" y="1670" width="250" height="30" as="geometry" />
        </mxCell>
        <mxCell id="K9lvbok_ld0rpNyF6cux-41" value="AuthController@register" style="ellipse;whiteSpace=wrap;html=1;" parent="1" vertex="1">
          <mxGeometry x="430" y="200" width="180" height="30" as="geometry" />
        </mxCell>
        <mxCell id="K9lvbok_ld0rpNyF6cux-42" value="AuthController@login" style="ellipse;whiteSpace=wrap;html=1;" parent="1" vertex="1">
          <mxGeometry x="430" y="235" width="180" height="30" as="geometry" />
        </mxCell>
        <mxCell id="K9lvbok_ld0rpNyF6cux-43" value="AuthController@logout" style="ellipse;whiteSpace=wrap;html=1;" parent="1" vertex="1">
          <mxGeometry x="430" y="270" width="180" height="30" as="geometry" />
        </mxCell>
        <mxCell id="K9lvbok_ld0rpNyF6cux-45" value="" style="endArrow=classic;html=1;rounded=0;entryX=0;entryY=0.5;entryDx=0;entryDy=0;exitX=1;exitY=0.5;exitDx=0;exitDy=0;" parent="1" source="K9lvbok_ld0rpNyF6cux-16" target="K9lvbok_ld0rpNyF6cux-41" edge="1">
          <mxGeometry width="50" height="50" relative="1" as="geometry">
            <mxPoint x="290" y="520" as="sourcePoint" />
            <mxPoint x="340" y="470" as="targetPoint" />
          </mxGeometry>
        </mxCell>
        <mxCell id="K9lvbok_ld0rpNyF6cux-46" value="" style="endArrow=classic;html=1;rounded=0;entryX=0;entryY=0.5;entryDx=0;entryDy=0;exitX=1;exitY=0.5;exitDx=0;exitDy=0;" parent="1" edge="1">
          <mxGeometry width="50" height="50" relative="1" as="geometry">
            <mxPoint x="380" y="249.66" as="sourcePoint" />
            <mxPoint x="430" y="249.66" as="targetPoint" />
          </mxGeometry>
        </mxCell>
        <mxCell id="K9lvbok_ld0rpNyF6cux-47" value="" style="endArrow=classic;html=1;rounded=0;entryX=0;entryY=0.5;entryDx=0;entryDy=0;exitX=1;exitY=0.5;exitDx=0;exitDy=0;" parent="1" edge="1">
          <mxGeometry width="50" height="50" relative="1" as="geometry">
            <mxPoint x="380" y="284.65999999999997" as="sourcePoint" />
            <mxPoint x="430" y="284.65999999999997" as="targetPoint" />
          </mxGeometry>
        </mxCell>
        <mxCell id="K9lvbok_ld0rpNyF6cux-49" value="UserController@index" style="ellipse;whiteSpace=wrap;html=1;" parent="1" vertex="1">
          <mxGeometry x="430" y="400" width="180" height="30" as="geometry" />
        </mxCell>
        <mxCell id="K9lvbok_ld0rpNyF6cux-50" value="UserController@show" style="ellipse;whiteSpace=wrap;html=1;" parent="1" vertex="1">
          <mxGeometry x="430" y="435" width="180" height="30" as="geometry" />
        </mxCell>
        <mxCell id="K9lvbok_ld0rpNyF6cux-51" value="UserController@update" style="ellipse;whiteSpace=wrap;html=1;" parent="1" vertex="1">
          <mxGeometry x="430" y="470" width="180" height="30" as="geometry" />
        </mxCell>
        <mxCell id="K9lvbok_ld0rpNyF6cux-52" value="UserController@destroy" style="ellipse;whiteSpace=wrap;html=1;" parent="1" vertex="1">
          <mxGeometry x="430" y="506" width="180" height="30" as="geometry" />
        </mxCell>
        <mxCell id="K9lvbok_ld0rpNyF6cux-53" value="" style="endArrow=classic;html=1;rounded=0;entryX=0;entryY=0.5;entryDx=0;entryDy=0;exitX=1;exitY=0.5;exitDx=0;exitDy=0;" parent="1" edge="1">
          <mxGeometry width="50" height="50" relative="1" as="geometry">
            <mxPoint x="380" y="414.65999999999997" as="sourcePoint" />
            <mxPoint x="430" y="414.65999999999997" as="targetPoint" />
          </mxGeometry>
        </mxCell>
        <mxCell id="K9lvbok_ld0rpNyF6cux-54" value="" style="endArrow=classic;html=1;rounded=0;entryX=0;entryY=0.5;entryDx=0;entryDy=0;exitX=1;exitY=0.5;exitDx=0;exitDy=0;" parent="1" edge="1">
          <mxGeometry width="50" height="50" relative="1" as="geometry">
            <mxPoint x="380" y="449.65999999999997" as="sourcePoint" />
            <mxPoint x="430" y="449.65999999999997" as="targetPoint" />
          </mxGeometry>
        </mxCell>
        <mxCell id="K9lvbok_ld0rpNyF6cux-55" value="" style="endArrow=classic;html=1;rounded=0;entryX=0;entryY=0.5;entryDx=0;entryDy=0;exitX=1;exitY=0.5;exitDx=0;exitDy=0;" parent="1" edge="1">
          <mxGeometry width="50" height="50" relative="1" as="geometry">
            <mxPoint x="380" y="484.65999999999997" as="sourcePoint" />
            <mxPoint x="430" y="484.65999999999997" as="targetPoint" />
          </mxGeometry>
        </mxCell>
        <mxCell id="K9lvbok_ld0rpNyF6cux-56" value="" style="endArrow=classic;html=1;rounded=0;entryX=0;entryY=0.5;entryDx=0;entryDy=0;exitX=1;exitY=0.5;exitDx=0;exitDy=0;" parent="1" edge="1">
          <mxGeometry width="50" height="50" relative="1" as="geometry">
            <mxPoint x="380" y="520.66" as="sourcePoint" />
            <mxPoint x="430" y="520.66" as="targetPoint" />
          </mxGeometry>
        </mxCell>
        <mxCell id="K9lvbok_ld0rpNyF6cux-57" value="ProfileController@index" style="ellipse;whiteSpace=wrap;html=1;" parent="1" vertex="1">
          <mxGeometry x="510" y="790" width="180" height="30" as="geometry" />
        </mxCell>
        <mxCell id="K9lvbok_ld0rpNyF6cux-58" value="ProfileController@store" style="ellipse;whiteSpace=wrap;html=1;" parent="1" vertex="1">
          <mxGeometry x="510" y="830" width="180" height="30" as="geometry" />
        </mxCell>
        <mxCell id="K9lvbok_ld0rpNyF6cux-59" value="ProfileController@show" style="ellipse;whiteSpace=wrap;html=1;" parent="1" vertex="1">
          <mxGeometry x="510" y="870" width="180" height="30" as="geometry" />
        </mxCell>
        <mxCell id="K9lvbok_ld0rpNyF6cux-60" value="ProfileController@update" style="ellipse;whiteSpace=wrap;html=1;" parent="1" vertex="1">
          <mxGeometry x="510" y="910" width="180" height="30" as="geometry" />
        </mxCell>
        <mxCell id="K9lvbok_ld0rpNyF6cux-61" value="ProfileController@destroy" style="ellipse;whiteSpace=wrap;html=1;" parent="1" vertex="1">
          <mxGeometry x="510" y="950" width="180" height="30" as="geometry" />
        </mxCell>
        <mxCell id="K9lvbok_ld0rpNyF6cux-73" value="ContentController@index" style="ellipse;whiteSpace=wrap;html=1;" parent="1" vertex="1">
          <mxGeometry x="470" y="1320" width="220" height="30" as="geometry" />
        </mxCell>
        <mxCell id="K9lvbok_ld0rpNyF6cux-74" value="ContentController@show" style="ellipse;whiteSpace=wrap;html=1;" parent="1" vertex="1">
          <mxGeometry x="470" y="1360" width="220" height="30" as="geometry" />
        </mxCell>
        <mxCell id="K9lvbok_ld0rpNyF6cux-75" value="&amp;nbsp;ContentController@recommendations" style="ellipse;whiteSpace=wrap;html=1;" parent="1" vertex="1">
          <mxGeometry x="470" y="1400" width="220" height="30" as="geometry" />
        </mxCell>
        <mxCell id="K9lvbok_ld0rpNyF6cux-76" value="&lt;div&gt;&lt;span style=&quot;background-color: initial;&quot;&gt;ContentController@search&lt;/span&gt;&lt;/div&gt;" style="ellipse;whiteSpace=wrap;html=1;" parent="1" vertex="1">
          <mxGeometry x="470" y="1440" width="220" height="30" as="geometry" />
        </mxCell>
        <mxCell id="K9lvbok_ld0rpNyF6cux-78" style="edgeStyle=orthogonalEdgeStyle;rounded=0;orthogonalLoop=1;jettySize=auto;html=1;exitX=1;exitY=0.5;exitDx=0;exitDy=0;entryX=0.023;entryY=0.5;entryDx=0;entryDy=0;entryPerimeter=0;" parent="1" source="K9lvbok_ld0rpNyF6cux-33" target="K9lvbok_ld0rpNyF6cux-74" edge="1">
          <mxGeometry relative="1" as="geometry" />
        </mxCell>
        <mxCell id="K9lvbok_ld0rpNyF6cux-81" value="SubscriptionController@index" style="ellipse;whiteSpace=wrap;html=1;" parent="1" vertex="1">
          <mxGeometry x="440" y="1550" width="250" height="30" as="geometry" />
        </mxCell>
        <mxCell id="K9lvbok_ld0rpNyF6cux-82" value="SubscriptionController@store" style="ellipse;whiteSpace=wrap;html=1;" parent="1" vertex="1">
          <mxGeometry x="440" y="1590" width="250" height="30" as="geometry" />
        </mxCell>
        <mxCell id="K9lvbok_ld0rpNyF6cux-83" value="SubscriptionController@update" style="ellipse;whiteSpace=wrap;html=1;" parent="1" vertex="1">
          <mxGeometry x="440" y="1630" width="250" height="30" as="geometry" />
        </mxCell>
        <mxCell id="K9lvbok_ld0rpNyF6cux-84" value="SubscriptionController@destroy" style="ellipse;whiteSpace=wrap;html=1;" parent="1" vertex="1">
          <mxGeometry x="440" y="1670" width="250" height="30" as="geometry" />
        </mxCell>
        <mxCell id="tKKRbEmBVVN4a7lQn9gy-1" style="edgeStyle=orthogonalEdgeStyle;rounded=0;orthogonalLoop=1;jettySize=auto;html=1;exitX=0.5;exitY=1;exitDx=0;exitDy=0;" edge="1" parent="1" source="K9lvbok_ld0rpNyF6cux-15" target="K9lvbok_ld0rpNyF6cux-15">
          <mxGeometry relative="1" as="geometry" />
        </mxCell>
        <mxCell id="tKKRbEmBVVN4a7lQn9gy-10" style="edgeStyle=orthogonalEdgeStyle;rounded=0;orthogonalLoop=1;jettySize=auto;html=1;entryX=0;entryY=0.5;entryDx=0;entryDy=0;" edge="1" parent="1" source="tKKRbEmBVVN4a7lQn9gy-3" target="tKKRbEmBVVN4a7lQn9gy-4">
          <mxGeometry relative="1" as="geometry" />
        </mxCell>
        <mxCell id="tKKRbEmBVVN4a7lQn9gy-3" value="POST /users/{user_id}" style="ellipse;whiteSpace=wrap;html=1;" vertex="1" parent="1">
          <mxGeometry x="160" y="550" width="166" height="30" as="geometry" />
        </mxCell>
        <mxCell id="tKKRbEmBVVN4a7lQn9gy-4" value="UserController@assignSubscription" style="ellipse;whiteSpace=wrap;html=1;" vertex="1" parent="1">
          <mxGeometry x="470" y="550" width="220" height="30" as="geometry" />
        </mxCell>
        <mxCell id="tKKRbEmBVVN4a7lQn9gy-11" style="edgeStyle=orthogonalEdgeStyle;rounded=0;orthogonalLoop=1;jettySize=auto;html=1;entryX=0;entryY=0.5;entryDx=0;entryDy=0;" edge="1" parent="1" source="tKKRbEmBVVN4a7lQn9gy-5" target="tKKRbEmBVVN4a7lQn9gy-6">
          <mxGeometry relative="1" as="geometry" />
        </mxCell>
        <mxCell id="tKKRbEmBVVN4a7lQn9gy-5" value="PATCH /users/{user_id}" style="ellipse;whiteSpace=wrap;html=1;" vertex="1" parent="1">
          <mxGeometry x="164" y="600" width="166" height="30" as="geometry" />
        </mxCell>
        <mxCell id="tKKRbEmBVVN4a7lQn9gy-6" value="UserController@updateSubscription" style="ellipse;whiteSpace=wrap;html=1;" vertex="1" parent="1">
          <mxGeometry x="474" y="600" width="216" height="30" as="geometry" />
        </mxCell>
        <mxCell id="tKKRbEmBVVN4a7lQn9gy-12" style="edgeStyle=orthogonalEdgeStyle;rounded=0;orthogonalLoop=1;jettySize=auto;html=1;entryX=0;entryY=0.5;entryDx=0;entryDy=0;" edge="1" parent="1" source="tKKRbEmBVVN4a7lQn9gy-7" target="tKKRbEmBVVN4a7lQn9gy-8">
          <mxGeometry relative="1" as="geometry" />
        </mxCell>
        <mxCell id="tKKRbEmBVVN4a7lQn9gy-7" value="DELETE /users/{user_id}" style="ellipse;whiteSpace=wrap;html=1;" vertex="1" parent="1">
          <mxGeometry x="163" y="650" width="166" height="30" as="geometry" />
        </mxCell>
        <mxCell id="tKKRbEmBVVN4a7lQn9gy-8" value="UserController@unassignSubscription" style="ellipse;whiteSpace=wrap;html=1;" vertex="1" parent="1">
          <mxGeometry x="473" y="650" width="217" height="30" as="geometry" />
        </mxCell>
        <mxCell id="tKKRbEmBVVN4a7lQn9gy-13" style="edgeStyle=orthogonalEdgeStyle;rounded=0;orthogonalLoop=1;jettySize=auto;html=1;entryX=0;entryY=0.5;entryDx=0;entryDy=0;" edge="1" parent="1" source="tKKRbEmBVVN4a7lQn9gy-14" target="tKKRbEmBVVN4a7lQn9gy-15">
          <mxGeometry relative="1" as="geometry" />
        </mxCell>
        <mxCell id="tKKRbEmBVVN4a7lQn9gy-14" value="GET /profiles/{profile_id}/picture" style="ellipse;whiteSpace=wrap;html=1;" vertex="1" parent="1">
          <mxGeometry x="133" y="990" width="250" height="30" as="geometry" />
        </mxCell>
        <mxCell id="tKKRbEmBVVN4a7lQn9gy-15" value="ProfileController@getProfilePicture" style="ellipse;whiteSpace=wrap;html=1;" vertex="1" parent="1">
          <mxGeometry x="470" y="990" width="223" height="30" as="geometry" />
        </mxCell>
        <mxCell id="tKKRbEmBVVN4a7lQn9gy-17" value="Language Routes" style="shape=rectangle;whiteSpace=wrap;html=1;verticalAlign=top;fillColor=#60a917;fontColor=#ffffff;strokeColor=#2D7600;" vertex="1" parent="1">
          <mxGeometry x="120" y="1070" width="580" height="80" as="geometry" />
        </mxCell>
        <mxCell id="tKKRbEmBVVN4a7lQn9gy-18" style="edgeStyle=orthogonalEdgeStyle;rounded=0;orthogonalLoop=1;jettySize=auto;html=1;exitX=1;exitY=0.5;exitDx=0;exitDy=0;" edge="1" parent="1" source="tKKRbEmBVVN4a7lQn9gy-19" target="tKKRbEmBVVN4a7lQn9gy-20">
          <mxGeometry relative="1" as="geometry" />
        </mxCell>
        <mxCell id="tKKRbEmBVVN4a7lQn9gy-19" value="GET /languages" style="ellipse;whiteSpace=wrap;html=1;" vertex="1" parent="1">
          <mxGeometry x="130" y="1100" width="250" height="30" as="geometry" />
        </mxCell>
        <mxCell id="tKKRbEmBVVN4a7lQn9gy-20" value="languageController@index" style="ellipse;whiteSpace=wrap;html=1;" vertex="1" parent="1">
          <mxGeometry x="510" y="1100" width="180" height="30" as="geometry" />
        </mxCell>
        <mxCell id="tKKRbEmBVVN4a7lQn9gy-21" value="User profile Routes" style="shape=rectangle;whiteSpace=wrap;html=1;fillColor=#f8cecc;verticalAlign=top;" vertex="1" parent="1">
          <mxGeometry x="124" y="1180" width="580" height="80" as="geometry" />
        </mxCell>
        <mxCell id="tKKRbEmBVVN4a7lQn9gy-22" style="edgeStyle=orthogonalEdgeStyle;rounded=0;orthogonalLoop=1;jettySize=auto;html=1;exitX=1;exitY=0.5;exitDx=0;exitDy=0;" edge="1" parent="1" source="tKKRbEmBVVN4a7lQn9gy-23" target="tKKRbEmBVVN4a7lQn9gy-24">
          <mxGeometry relative="1" as="geometry" />
        </mxCell>
        <mxCell id="tKKRbEmBVVN4a7lQn9gy-23" value="GET /user/profile" style="ellipse;whiteSpace=wrap;html=1;" vertex="1" parent="1">
          <mxGeometry x="134" y="1210" width="250" height="30" as="geometry" />
        </mxCell>
        <mxCell id="tKKRbEmBVVN4a7lQn9gy-24" value="ProfileController@getCurrentUserProfile" style="ellipse;whiteSpace=wrap;html=1;" vertex="1" parent="1">
          <mxGeometry x="440" y="1210" width="254" height="30" as="geometry" />
        </mxCell>
      </root>
    </mxGraphModel>
  </diagram>
</mxfile>
